<mxfile host="app.diagrams.net" modified="2022-08-07T18:19:20.460Z" agent="5.0 (Macintosh; Intel Mac OS X 10_15_7) AppleWebKit/537.36 (KHTML, like Gecko) Chrome/103.0.0.0 Safari/537.36" etag="jebTZZp_ZJO6_zP3HmJT" version="17.5.1" type="github">
  <diagram id="C5RBs43oDa-KdzZeNtuy" name="Page-1">
    <mxGraphModel dx="1018" dy="602" grid="1" gridSize="10" guides="1" tooltips="1" connect="1" arrows="1" fold="1" page="1" pageScale="1" pageWidth="827" pageHeight="1169" math="0" shadow="0">
      <root>
        <mxCell id="WIyWlLk6GJQsqaUBKTNV-0" />
        <mxCell id="WIyWlLk6GJQsqaUBKTNV-1" parent="WIyWlLk6GJQsqaUBKTNV-0" />
        <mxCell id="uwdcoz6HARXgGuEvxygR-0" value="Vehicle" style="swimlane;fontStyle=1;align=center;verticalAlign=top;childLayout=stackLayout;horizontal=1;startSize=26;horizontalStack=0;resizeParent=1;resizeParentMax=0;resizeLast=0;collapsible=1;marginBottom=0;" vertex="1" parent="WIyWlLk6GJQsqaUBKTNV-1">
          <mxGeometry x="50" y="20" width="540" height="260" as="geometry" />
        </mxCell>
        <mxCell id="uwdcoz6HARXgGuEvxygR-1" value="- VIN(String): String&#xa;- maker(String): String&#xa;- model(String): String&#xa;- year(Integer): Integer&#xa;- color(String): String&#xa;- engineSize(String): String&#xa;- fuelType(String): String&#xa;- licensePlate(String): String&#xa;- registrationDate(Date): Date&#xa;- pOwner: Person&#xa;- oOwner: Organization" style="text;strokeColor=none;fillColor=none;align=left;verticalAlign=top;spacingLeft=4;spacingRight=4;overflow=hidden;rotatable=0;points=[[0,0.5],[1,0.5]];portConstraint=eastwest;" vertex="1" parent="uwdcoz6HARXgGuEvxygR-0">
          <mxGeometry y="26" width="540" height="164" as="geometry" />
        </mxCell>
        <mxCell id="uwdcoz6HARXgGuEvxygR-2" value="" style="line;strokeWidth=1;fillColor=none;align=left;verticalAlign=middle;spacingTop=-1;spacingLeft=3;spacingRight=3;rotatable=0;labelPosition=right;points=[];portConstraint=eastwest;" vertex="1" parent="uwdcoz6HARXgGuEvxygR-0">
          <mxGeometry y="190" width="540" height="8" as="geometry" />
        </mxCell>
        <mxCell id="uwdcoz6HARXgGuEvxygR-3" value="+ Vehicle()&#xa;+ Vehicle(String, String, String, Integer, String, String, String, String, Date, Person, Organization)&#xa;+ toString(): String" style="text;strokeColor=none;fillColor=none;align=left;verticalAlign=top;spacingLeft=4;spacingRight=4;overflow=hidden;rotatable=0;points=[[0,0.5],[1,0.5]];portConstraint=eastwest;" vertex="1" parent="uwdcoz6HARXgGuEvxygR-0">
          <mxGeometry y="198" width="540" height="62" as="geometry" />
        </mxCell>
        <mxCell id="uwdcoz6HARXgGuEvxygR-4" value="Person" style="swimlane;fontStyle=1;align=center;verticalAlign=top;childLayout=stackLayout;horizontal=1;startSize=26;horizontalStack=0;resizeParent=1;resizeParentMax=0;resizeLast=0;collapsible=1;marginBottom=0;" vertex="1" parent="WIyWlLk6GJQsqaUBKTNV-1">
          <mxGeometry x="690" y="30" width="220" height="170" as="geometry" />
        </mxCell>
        <mxCell id="uwdcoz6HARXgGuEvxygR-5" value="- name(String): String&#xa;- phone(String): String&#xa;- email(String): String&#xa;- address(String): String" style="text;strokeColor=none;fillColor=none;align=left;verticalAlign=top;spacingLeft=4;spacingRight=4;overflow=hidden;rotatable=0;points=[[0,0.5],[1,0.5]];portConstraint=eastwest;" vertex="1" parent="uwdcoz6HARXgGuEvxygR-4">
          <mxGeometry y="26" width="220" height="74" as="geometry" />
        </mxCell>
        <mxCell id="uwdcoz6HARXgGuEvxygR-6" value="" style="line;strokeWidth=1;fillColor=none;align=left;verticalAlign=middle;spacingTop=-1;spacingLeft=3;spacingRight=3;rotatable=0;labelPosition=right;points=[];portConstraint=eastwest;" vertex="1" parent="uwdcoz6HARXgGuEvxygR-4">
          <mxGeometry y="100" width="220" height="8" as="geometry" />
        </mxCell>
        <mxCell id="uwdcoz6HARXgGuEvxygR-7" value="+ Person()&#xa;+ Person(String, String, String, String)&#xa;+ toString(): String" style="text;strokeColor=none;fillColor=none;align=left;verticalAlign=top;spacingLeft=4;spacingRight=4;overflow=hidden;rotatable=0;points=[[0,0.5],[1,0.5]];portConstraint=eastwest;" vertex="1" parent="uwdcoz6HARXgGuEvxygR-4">
          <mxGeometry y="108" width="220" height="62" as="geometry" />
        </mxCell>
        <mxCell id="uwdcoz6HARXgGuEvxygR-9" value="Organization" style="swimlane;fontStyle=1;align=center;verticalAlign=top;childLayout=stackLayout;horizontal=1;startSize=26;horizontalStack=0;resizeParent=1;resizeParentMax=0;resizeLast=0;collapsible=1;marginBottom=0;" vertex="1" parent="WIyWlLk6GJQsqaUBKTNV-1">
          <mxGeometry x="610" y="360" width="290" height="180" as="geometry" />
        </mxCell>
        <mxCell id="uwdcoz6HARXgGuEvxygR-10" value="- name(String): String&#xa;- phone(String): String&#xa;- email(String): String&#xa;- address(String): String&#xa;- representative: Person" style="text;strokeColor=none;fillColor=none;align=left;verticalAlign=top;spacingLeft=4;spacingRight=4;overflow=hidden;rotatable=0;points=[[0,0.5],[1,0.5]];portConstraint=eastwest;" vertex="1" parent="uwdcoz6HARXgGuEvxygR-9">
          <mxGeometry y="26" width="290" height="84" as="geometry" />
        </mxCell>
        <mxCell id="uwdcoz6HARXgGuEvxygR-11" value="" style="line;strokeWidth=1;fillColor=none;align=left;verticalAlign=middle;spacingTop=-1;spacingLeft=3;spacingRight=3;rotatable=0;labelPosition=right;points=[];portConstraint=eastwest;" vertex="1" parent="uwdcoz6HARXgGuEvxygR-9">
          <mxGeometry y="110" width="290" height="8" as="geometry" />
        </mxCell>
        <mxCell id="uwdcoz6HARXgGuEvxygR-12" value="+ Organization()&#xa;+ Organization(String, String, String, String, Person)&#xa;+ toString(): String" style="text;strokeColor=none;fillColor=none;align=left;verticalAlign=top;spacingLeft=4;spacingRight=4;overflow=hidden;rotatable=0;points=[[0,0.5],[1,0.5]];portConstraint=eastwest;" vertex="1" parent="uwdcoz6HARXgGuEvxygR-9">
          <mxGeometry y="118" width="290" height="62" as="geometry" />
        </mxCell>
        <mxCell id="uwdcoz6HARXgGuEvxygR-20" value="DMV" style="swimlane;fontStyle=1;align=center;verticalAlign=top;childLayout=stackLayout;horizontal=1;startSize=26;horizontalStack=0;resizeParent=1;resizeParentMax=0;resizeLast=0;collapsible=1;marginBottom=0;" vertex="1" parent="WIyWlLk6GJQsqaUBKTNV-1">
          <mxGeometry x="120" y="370" width="370" height="222" as="geometry" />
        </mxCell>
        <mxCell id="uwdcoz6HARXgGuEvxygR-21" value="- vehicleList: ArrayList&lt;Vehicle&gt;" style="text;strokeColor=none;fillColor=none;align=left;verticalAlign=top;spacingLeft=4;spacingRight=4;overflow=hidden;rotatable=0;points=[[0,0.5],[1,0.5]];portConstraint=eastwest;" vertex="1" parent="uwdcoz6HARXgGuEvxygR-20">
          <mxGeometry y="26" width="370" height="34" as="geometry" />
        </mxCell>
        <mxCell id="uwdcoz6HARXgGuEvxygR-22" value="" style="line;strokeWidth=1;fillColor=none;align=left;verticalAlign=middle;spacingTop=-1;spacingLeft=3;spacingRight=3;rotatable=0;labelPosition=right;points=[];portConstraint=eastwest;" vertex="1" parent="uwdcoz6HARXgGuEvxygR-20">
          <mxGeometry y="60" width="370" height="30" as="geometry" />
        </mxCell>
        <mxCell id="uwdcoz6HARXgGuEvxygR-23" value="+ DMV()&#xa;+ DMV(ArrayList&lt;Vehicle&gt;)&#xa;+ register(Vehicle, Date): boolean&#xa;+ search(String): VoidÂ &#xa;+ display(): void&#xa;+ changeOwnership(Vehicle, Person, Organization, Date): boolean" style="text;strokeColor=none;fillColor=none;align=left;verticalAlign=top;spacingLeft=4;spacingRight=4;overflow=hidden;rotatable=0;points=[[0,0.5],[1,0.5]];portConstraint=eastwest;" vertex="1" parent="uwdcoz6HARXgGuEvxygR-20">
          <mxGeometry y="90" width="370" height="132" as="geometry" />
        </mxCell>
        <mxCell id="uwdcoz6HARXgGuEvxygR-26" value="" style="endArrow=diamondThin;endFill=0;endSize=24;html=1;rounded=0;exitX=0;exitY=0.5;exitDx=0;exitDy=0;" edge="1" parent="WIyWlLk6GJQsqaUBKTNV-1" source="uwdcoz6HARXgGuEvxygR-5" target="uwdcoz6HARXgGuEvxygR-1">
          <mxGeometry width="160" relative="1" as="geometry">
            <mxPoint x="330" y="310" as="sourcePoint" />
            <mxPoint x="490" y="310" as="targetPoint" />
          </mxGeometry>
        </mxCell>
        <mxCell id="uwdcoz6HARXgGuEvxygR-30" value="" style="endArrow=diamondThin;endFill=0;endSize=24;html=1;rounded=0;" edge="1" parent="WIyWlLk6GJQsqaUBKTNV-1" source="uwdcoz6HARXgGuEvxygR-7" target="uwdcoz6HARXgGuEvxygR-20">
          <mxGeometry width="160" relative="1" as="geometry">
            <mxPoint x="590" y="123" as="sourcePoint" />
            <mxPoint x="460" y="139.5079365079365" as="targetPoint" />
          </mxGeometry>
        </mxCell>
        <mxCell id="uwdcoz6HARXgGuEvxygR-31" value="" style="endArrow=diamondThin;endFill=0;endSize=24;html=1;rounded=0;exitX=0;exitY=0.5;exitDx=0;exitDy=0;entryX=1;entryY=0.189;entryDx=0;entryDy=0;entryPerimeter=0;" edge="1" parent="WIyWlLk6GJQsqaUBKTNV-1" source="uwdcoz6HARXgGuEvxygR-10" target="uwdcoz6HARXgGuEvxygR-23">
          <mxGeometry width="160" relative="1" as="geometry">
            <mxPoint x="580" y="400" as="sourcePoint" />
            <mxPoint x="450" y="416.5079365079365" as="targetPoint" />
          </mxGeometry>
        </mxCell>
        <mxCell id="uwdcoz6HARXgGuEvxygR-32" value="" style="endArrow=diamondThin;endFill=0;endSize=24;html=1;rounded=0;exitX=0.518;exitY=0.984;exitDx=0;exitDy=0;exitPerimeter=0;" edge="1" parent="WIyWlLk6GJQsqaUBKTNV-1" source="uwdcoz6HARXgGuEvxygR-7" target="uwdcoz6HARXgGuEvxygR-9">
          <mxGeometry width="160" relative="1" as="geometry">
            <mxPoint x="610" y="143" as="sourcePoint" />
            <mxPoint x="480" y="159.5079365079365" as="targetPoint" />
          </mxGeometry>
        </mxCell>
        <mxCell id="uwdcoz6HARXgGuEvxygR-33" value="" style="endArrow=diamondThin;endFill=0;endSize=24;html=1;rounded=0;entryX=0.997;entryY=0.968;entryDx=0;entryDy=0;entryPerimeter=0;" edge="1" parent="WIyWlLk6GJQsqaUBKTNV-1" source="uwdcoz6HARXgGuEvxygR-9" target="uwdcoz6HARXgGuEvxygR-1">
          <mxGeometry width="160" relative="1" as="geometry">
            <mxPoint x="620" y="153" as="sourcePoint" />
            <mxPoint x="490" y="169.5079365079365" as="targetPoint" />
          </mxGeometry>
        </mxCell>
        <mxCell id="uwdcoz6HARXgGuEvxygR-34" value="" style="endArrow=diamondThin;endFill=0;endSize=24;html=1;rounded=0;" edge="1" parent="WIyWlLk6GJQsqaUBKTNV-1" source="uwdcoz6HARXgGuEvxygR-3" target="uwdcoz6HARXgGuEvxygR-20">
          <mxGeometry width="160" relative="1" as="geometry">
            <mxPoint x="627.0034246575342" y="200" as="sourcePoint" />
            <mxPoint x="418.95547945205476" y="350" as="targetPoint" />
          </mxGeometry>
        </mxCell>
      </root>
    </mxGraphModel>
  </diagram>
</mxfile>
